Simulation
nRows=16
nColumns=15
endheader
time  TH_x TH_y TH_z SC_y  SC_z  SC_x  AC_y  AC_z  AC_x  GH_y  GH_z  GH_yy  EL_x  PS_y
0.75  0.000000  0.000000  0.000000  -34.080586932561545  2.639634576017614  20.124237502283165  60.92346815952824  1.1365851403905367  -12.35253388720883  20.70170094830005  45.35906371541566  -17.405755789900653  19.968168530476238  0.000000
0.765  0.000000  0.000000  0.000000  -34.253469042589664  2.793358685120244  20.38300673187874  61.02121850805509  1.4946774710525037  -12.265313708646868  20.77247019034882  45.867080559062416  -17.740772451257538  19.765756892026037  0.000000
0.78  0.000000  0.000000  0.000000  -34.43548138190988  2.9507704168132687  20.64774141489961  61.11802877099764  1.8478604565958423  -12.169448032971802  20.849847597669623  46.35937835085288  -18.074651081143816  19.56209933943834  0.000000
0.7949999999999999  0.000000  0.000000  0.000000  -34.62705034571968  3.11141542473007  20.918795969561607  61.21473622414558  2.1943620138983446  -12.064410287362989  20.93372995977484  46.836169161981005  -18.407462264235786  19.357629915370627  0.000000
0.8099999999999999  0.000000  0.000000  0.000000  -34.82826842945299  3.2743622877721275  21.196414121820006  61.312103019646756  2.53265274618423  -11.949955810151906  21.023768710560578  47.29785871139212  -18.73928672188447  19.15266625422389  0.000000
0.825  0.000000  0.000000  0.000000  -35.0392184452156  3.4392620935524745  21.48074738303735  61.41113276319259  2.8611953284858247  -11.825872366776302  21.119235643128924  47.74456461397931  -19.070184253218148  18.947781167592073  0.000000
0.84  0.000000  0.000000  0.000000  -35.26026607696625  3.605563738851228  21.771880986178225  61.513116936179046  3.1787597814182993  -11.692021055539858  21.21918870566973  48.1763161164894  -19.399782080454415  18.74356156582004  0.000000
0.855  0.000000  0.000000  0.000000  -35.491750907685876  3.7720113461894567  22.07008305117983  61.61943282219804  3.484316588990561  -11.54852834290268  21.322571234194776  48.59316825083594  -19.72764762148392  18.540465724555332  0.000000
0.87  0.000000  0.000000  0.000000  -35.73370397557955  3.9374252741530946  22.37521440957363  61.73134717290602  3.7769124714170226  -11.395782572819769  21.428315043260735  48.995481503338205  -20.053492558625162  18.33890997044474  0.000000
0.885  0.000000  0.000000  0.000000  -35.98597345977625  4.10076369989016  22.687274175170206  61.84975930745542  4.055653634995774  -11.234306282831792  21.535539214805066  49.383357395748284  -20.376740267577  18.13942718816368  0.000000
0.8999999999999999  0.000000  0.000000  0.000000  -36.24812728065615  4.261006357319355  23.005636110290922  61.97521635433835  4.320007225847185  -11.06481426646278  21.643442901172097  49.75719015964636  -20.696831738234085  17.942611200865727  0.000000
0.9149999999999999  0.000000  0.000000  0.000000  -36.51957509220484  4.4170955511477885  23.329750209025928  62.10792490684098  4.569741929139701  -10.888304552081895  21.751399951164153  50.11710042039626  -21.012981182945758  17.749210416526402  0.000000
0.9299999999999999  0.000000  0.000000  0.000000  -36.79937615068796  4.568142231006359  23.658594711153473  62.24758493382914  4.804965939799676  -10.706066734892309  21.858930945989247  50.46341388630217  -21.324415269357434  17.560015823188376  0.000000
0.945  0.000000  0.000000  0.000000  -37.086310942012325  4.7133049613252025  23.991273091394973  62.39355589289191  5.026160248602651  -10.519601389273939  21.965630119946972  50.796056116940356  -21.630187813034237  17.375820676726047  0.000000
0.96  0.000000  0.000000  0.000000  -37.378959749658016  4.851711191603764  24.326357002689825  62.54497508688256  5.234155954950489  -10.330640088774842  22.071038124963273  51.115276533562074  -21.929412035677295  17.19746688533928  0.000000
0.975  0.000000  0.000000  0.000000  -37.67620444083184  4.982505242304194  24.662573697727407  62.700977089692294  5.429787404362814  -10.140591474168536  22.17491108729573  51.4211801599666  -22.221076812891038  17.02541368362565  0.000000
